<svg xmlns="http://www.w3.org/2000/svg" xmlns:svg="http://www.w3.org/2000/svg" id="svg1766" width="2846.767" height="2542.148" version="1.1" viewBox="0 0 2846.767 2542.148" xml:space="preserve"><metadata id="metadata1772"/><defs id="defs1770"><clipPath id="clipPath5110-7" clipPathUnits="userSpaceOnUse"><ellipse id="ellipse5112-9" cx="316.7" cy="455.911" fill="#729fcf" fill-opacity="1" fill-rule="nonzero" stroke="none" stroke-width="1.291" color="#000" display="inline" enable-background="accumulate" overflow="visible" rx="18.027" ry="17.788" visibility="visible" style="marker:none"/></clipPath><clipPath id="clipPath7044-2" clipPathUnits="userSpaceOnUse"><ellipse id="ellipse7046-8" cx="316.7" cy="455.911" fill="#729fcf" fill-opacity="1" fill-rule="nonzero" stroke="none" stroke-width="1.291" color="#000" display="inline" enable-background="accumulate" overflow="visible" rx="18.027" ry="17.788" visibility="visible" style="marker:none"/></clipPath><clipPath id="clipPath7044-2-3" clipPathUnits="userSpaceOnUse"><ellipse id="ellipse7046-8-5" cx="316.7" cy="455.911" fill="#729fcf" fill-opacity="1" fill-rule="nonzero" stroke="none" stroke-width="1.291" color="#000" display="inline" enable-background="accumulate" overflow="visible" rx="18.027" ry="17.788" visibility="visible" style="marker:none"/></clipPath></defs><g id="g1764" font-family="sans-serif" font-weight="bold" transform="translate(-459.99741,-1627.3179)"><g id="g32" fill="none" stroke="#7b7569" transform="matrix(1.99977,0,0,1.99977,2058.9316,2744.5046)"><path id="path12" fill="#7b7569" d="m 622.988,-208.07 h -2.625 v 80.944 H 431.567 v -80.916 H 286.821 v -48.206 h -96.134 v -301.159 h 432.301 z"/><path id="path14" fill="#7b7569" d="M 463.316,-158.747 H 622.507 V 219.424 H 286.821 V 65.869 h 0.268 v -305.741 h 176.227 z"/><path id="path16" fill="#7b7569" d="M 222.46,-256.248 H -54.187 V -557.407 H 222.46 Z"/><path id="path18" fill="#7b7569" d="m -22.32,-256.248 h -303.698 v -100.95 H -22.32 Z"/><path id="path20" fill="#7b7569" d="M 318.756,219.424 H 190.687 V -118.565 H -325.976 V -288.09 h 644.732 z"/><path id="path22" fill="#7b7569" d="M 478.59,433.367 H 298.714 V 187.68 H 478.59 Z"/><path id="path24" fill="#7b7569" d="M 318.714,710.925 H -199.232 V 187.552 h 517.946 z"/><path id="path26" fill="#7b7569" d="m 222.686,219.548 -640.027,-0.004 v -370.047 h 640.027 z"/><path id="path28" fill="#7b7569" d="m -366.052,-449.592 h 70.847 v 331.027 h -503.104 v -438.163 h 432.257 z"/><path id="path30" fill="#7b7569" d="m -22.32,-337.198 h -304.823 v -80.55 h -70.906 V -557.407 H -22.32 Z"/></g><path id="path42" fill="#e9e6cf" fill-opacity="1" stroke="#d9d4ad" stroke-width="2" d="m 1982.299,2062.1853 v 137.8853 h -543.3325 v -137.8853 z"/><path id="path44" fill="#ceead0" fill-opacity="1" stroke="#111" stroke-dasharray="none" stroke-miterlimit="4" stroke-opacity="1" stroke-width="3" d="M 2664.3754,3151.3061 H 2472.2585 V 2475.4053 H 1439.0502 V 2200.386 h 1225.3252 z"/><path id="path70" fill="#d9d4ad" stroke="#d9d4ad" stroke-width="2" d="m 1982.3004,2200.4272 h -543.1715 v -0.396 h 543.1715 z"/><path id="binary_sensor.door_window_sensor_158d00019f3211" fill="#fff" fill-opacity="1" stroke="#000" stroke-dasharray="none" stroke-miterlimit="4" stroke-opacity="1" stroke-width="2" d="m 2900.1089,3611.5933 h -159.9816 v -32.905 h 159.9816 z"/><path id="path94" fill="#fff" fill-opacity="1" stroke="#000" stroke-opacity="1" stroke-width="2" d="m 1195.3069,2507.4419 h -159.9816 v -32.0763 h 159.9816 z"/><path id="path106" fill="#fff" stroke="#000" stroke-dasharray="none" stroke-miterlimit="4" stroke-opacity="1" stroke-width="2" d="m 2023.4857,1629.7788 h 246.9856 v 32.0763 h -246.9856 z"/><path id="path108" fill="#fff" stroke="#000" stroke-dasharray="none" stroke-miterlimit="4" stroke-opacity="1" stroke-width="2" d="m 3016.0415,3348.3132 v 179.9793 h -32.0763 v -179.9793 z"/><path id="binary_sensor.door_window_sensor_158d0001e037dc" fill="#fff" stroke="#000" stroke-dasharray="none" stroke-miterlimit="4" stroke-opacity="1" stroke-width="2" d="M 2696.3263,3823.8565 V 4123.822 H 2664.25 v -299.9655 z"/><path id="binary_sensor.door_window_sensor_158d00019fbe38" fill="#fff" stroke="#000" stroke-dasharray="none" stroke-miterlimit="4" stroke-opacity="1" stroke-width="2" d="m 2625.2145,4166.2311 h -179.9793 v -32.0763 h 179.9793 z"/><path id="binary_sensor.door_window_sensor_158d0001a4a872" fill="#fff" stroke="#000" stroke-dasharray="none" stroke-miterlimit="4" stroke-opacity="1" stroke-width="2" d="M 1931.5223,4166.2311 H 1751.543 v -32.0763 h 179.9793 z"/><path id="path116" fill="#fff" stroke="#000" stroke-dasharray="none" stroke-miterlimit="4" stroke-opacity="1" stroke-width="2" d="m 1636.1142,3183.5841 h -327.3063 v -32.0763 h 327.3063 z"/><path id="path118" fill="#fff" stroke="#000" stroke-dasharray="none" stroke-miterlimit="4" stroke-opacity="1" stroke-width="2" d="m 1224.3056,3040.4866 v -450.8562 h 32.0763 v 450.8562 z"/><path id="binary_sensor.door_window_sensor_158d0001d7acfc" fill="#fff" stroke="#000" stroke-dasharray="none" stroke-miterlimit="4" stroke-opacity="1" stroke-width="2" d="m 462.45722,2271.9649 v -450.1542 h 32.07631 v 450.1542 z"/><path id="path122" fill="#fff" stroke="#000" stroke-dasharray="none" stroke-miterlimit="4" stroke-opacity="1" stroke-width="2" d="m 1545.1347,1629.7788 h 223.9822 v 32.0763 h -223.9822 z"/><g id="script.vacuum_bedroom"><path id="path52" fill="#fbc5bd" fill-opacity=".996" stroke="none" stroke-width="2" d="m 494.49337,1663.1729 h 800.42073 v 214.2463 h 141.6774 v 597.9861 H 494.49337 Z"/><path id="path74" fill="#ceead0" fill-opacity="1" stroke="none" stroke-opacity="1" stroke-width="2" d="m 1436.5532,2447.6927 v -159.9816 h 2.5377 v 159.9816 z"/><path id="path88" fill="#fac5be" fill-opacity="1" stroke="#000" stroke-dasharray="none" stroke-miterlimit="4" stroke-opacity="1" stroke-width=".99" d="m 1318.9587,1877.4203 v 325.7566 h -24.0772 v -325.7566 z"/><path id="path90" fill="#fac5be" fill-opacity="1" stroke="#000" stroke-dasharray="none" stroke-miterlimit="4" stroke-opacity="1" stroke-width=".99" d="m 494.87372,2320.9513 h 317.99319 v 24.0772 H 494.87372 Z"/><g id="g184" fill="none" stroke="#fff" stroke-width=".5" transform="matrix(1.99977,0,0,1.99977,2058.9316,2744.5046)"><path id="path182" fill="#fff" d="m -684.97595,-304.43688 h 165.50427 v -236.29115 h -165.50427 z"/></g><g id="g188" fill="none" stroke="#000" stroke-width=".5" transform="matrix(1.99977,0,0,1.99977,2058.9316,2744.5046)"><path id="path186" d="m -684.97595,-304.43688 h 165.50427 v -236.29115 h -165.50427 z"/></g><g id="g192" fill="none" stroke="#fff" stroke-width=".5" transform="matrix(1.99977,0,0,1.99977,2058.9316,2744.5046)"><path id="path190" fill="#fff" d="m -679.97595,-508.72803 c 0,1.65685 1.34314,3 3,3 h 69.25213 c 1.65685,0 3,-1.34315 3,-3 v -24 c 0,-1.65686 -1.34315,-3 -3,-3 h -69.25213 c -1.65686,0 -3,1.34314 -3,3 z"/></g><g id="g196" fill="none" stroke="#000" stroke-width=".5" transform="matrix(1.99977,0,0,1.99977,2058.9316,2744.5046)"><path id="path194" d="m -679.97595,-508.72803 c 0,1.65685 1.34314,3 3,3 h 69.25213 c 1.65685,0 3,-1.34315 3,-3 v -24 c 0,-1.65686 -1.34315,-3 -3,-3 h -69.25213 c -1.65686,0 -3,1.34314 -3,3 z"/></g><g id="g200" fill="none" stroke="#fff" stroke-width=".5" transform="matrix(1.99977,0,0,1.99977,2058.9316,2744.5046)"><path id="path198" fill="#fff" d="m -599.72382,-508.72803 c 0,1.65685 1.34315,3 3,3 h 69.25214 c 1.65685,0 3,-1.34315 3,-3 v -24 c 0,-1.65686 -1.34315,-3 -3,-3 h -69.25214 c -1.65685,0 -3,1.34314 -3,3 z"/></g><g id="g204" fill="none" stroke="#000" stroke-width=".5" transform="matrix(1.99977,0,0,1.99977,2058.9316,2744.5046)"><path id="path202" d="m -599.72382,-508.72803 c 0,1.65685 1.34315,3 3,3 h 69.25214 c 1.65685,0 3,-1.34315 3,-3 v -24 c 0,-1.65686 -1.34315,-3 -3,-3 h -69.25214 c -1.65685,0 -3,1.34314 -3,3 z"/></g><g id="media_player.bed_room" fill="#646464" fill-opacity="1" stroke="#646464" stroke-opacity="1" stroke-width=".5" font-family="sans-serif" font-weight="bold" transform="matrix(1.2189617,0,0,3.7173765,880.50717,-16.971128)"><path id="path594-5" fill="#646464" fill-opacity="1" stroke="#646464" stroke-opacity="1" d="M 119.28564,655.69355 H -37.57472 v -6 h 156.86036 z"/><path id="path596-0" fill="#646464" fill-opacity="1" stroke="#646464" stroke-opacity="1" d="m 109.28564,655.69355 -3,3 H -24.57472 l -3,-3"/><path id="path598-6" fill="#646464" fill-opacity="1" stroke="#646464" stroke-opacity="1" stroke-width=".384" d="m 72.286966,658.71556 v 3.81843 H 9.4239538 v -3.81843"/></g></g><g id="g152" fill="none" stroke="#7b7569" stroke-width="1.5" transform="matrix(1.99977,0,0,1.99977,2058.9316,2744.5046)"><path id="path126" fill="#7b7569" d="m 604.363,-212.02 h -0.06 v -12 h 0.06 z"/><path id="path128" fill="#7b7569"/><path id="path130" fill="#7b7569" d="m 318.714,203.68 h -16 v -0.136 h 16 z"/><path id="path132" fill="#7b7569" d="m 110.915,-77.42 h -12 v -57.145 h 12 z"/><path id="path134" fill="#7b7569" d="m 206.46,-26.549 h -44.895 v -12 h 44.895 z"/><path id="path136" fill="#7b7569" d="m 206.46,-44.248 h -57.871 v -12 h 57.871 z"/><path id="path138" fill="#7b7569"/><path id="path140" fill="#7b7569"/><path id="path142" fill="#7b7569" d="m -310.018,-272.248 -60.031,1.553 -0.31,-11.996 60.031,-1.553 z"/><path id="path144" fill="#7b7569"/><path id="path146" fill="#7b7569" d="m -623.104,-134.71154 h -12.18105 l 0.18105,-65.06946 h 12 z"/></g><g id="script.vacuum_kitchen"><path id="sdsad" fill="#c9e9ef" fill-opacity="1" stroke="none" stroke-width="1.364" d="m 2470.7807,2472.2723 v 680.4457 l -561.8415,-0.01 v -680.437 z" font-family="sans-serif" font-weight="bold"/><g id="g5804"><path id="path86" fill="#c9e9ef" fill-opacity="1" stroke="#000" stroke-dasharray="none" stroke-miterlimit="4" stroke-opacity="1" stroke-width=".262" d="m 2270.0873,2569.6927 99.3366,66.3364 -13.3705,20.0237 -99.3365,-66.3364 z"/><g id="g346" fill="none" stroke="#fff" stroke-width=".5" transform="matrix(1.99977,0,0,1.99977,2058.9316,2744.5046)"><path id="path344" fill="#fff" d="m 137.46023,14.54545 c -0.55228,0 -1,0.44772 -1,1 v 68 c 0,0.55228 0.44772,1 1,1 h 69 v -70 z"/></g><g id="g354" fill="none" stroke="#000" stroke-width=".5" transform="matrix(1.99977,0,0,1.99977,2058.9316,2744.5046)"><path id="path348" d="m 137.46023,14.54545 c -0.55228,0 -1,0.44772 -1,1 v 68 c 0,0.55228 0.44772,1 1,1 h 69 v -70 z"/><path id="path350" d="m 138.46023,14.54545 v 70"/><path id="path352" d="m 136.46023,19.54545 h -4 v 60 h 4"/></g><g id="g414" fill="none" stroke="#fff" stroke-width=".5" transform="matrix(1.99977,0,0,1.99977,2058.9316,2744.5046)"><path id="path412" fill="#fff" d="m -73.24885,135.43486 v -200 h 70 v 200 z"/></g><g id="g426" fill="none" stroke="#000" stroke-width=".5" transform="matrix(1.99977,0,0,1.99977,2058.9316,2744.5046)"><path id="path416" d="m -73.24885,135.43486 v -200 h 70 v 200 z"/><path id="path418" d="m -5.24885,-64.56514 v 200"/><path id="path420" d="m -5.24885,35.43486 h 2"/><path id="path422" d="m -3.24885,33.43486 h 2 v -3"/><path id="path424" d="m -3.24885,37.43486 h 2 v 3"/></g><g id="g430" fill="none" stroke="#fff" stroke-width=".5" transform="matrix(1.99977,0,0,1.99977,2058.9316,2744.5046)"><path id="path428" fill="#fff" d="M -73.24885,-134.56514 H 98.91537 v 70 H -73.24885 Z"/></g><g id="g442" fill="none" stroke="#000" stroke-width=".5" transform="matrix(1.99977,0,0,1.99977,2058.9316,2744.5046)"><path id="path432" d="M -73.24885,-134.56514 H 98.91537 v 70 H -73.24885 Z"/><path id="path434" d="M 98.91537,-66.56514 H -73.24885"/><path id="path436" d="m 12.83326,-66.56514 v 2"/><path id="path438" d="m 14.83326,-64.56514 v 2 h 3"/><path id="path440" d="m 10.83326,-64.56514 v 2 h -3"/></g><g id="g446" fill="none" stroke="#fff" stroke-width=".5" transform="matrix(1.99977,0,0,1.99977,2059.9076,2744.5046)"><path id="path444" fill="#fff" d="m 206.46023,-44.11088 v 200 h -70 v -200 z"/></g><g id="g458" fill="none" stroke="#000" stroke-width=".5" transform="matrix(1.99977,0,0,1.99977,2059.9076,2744.5046)"><path id="path448" d="m 206.46023,-44.11088 v 200 h -70 v -200 z"/><path id="path450" d="m 138.46023,155.88912 v -200"/><path id="path452" d="m 138.46023,55.88912 h -2"/><path id="path454" d="m 136.46023,57.88912 h -2 v 3"/><path id="path456" d="m 136.46023,53.88912 h -2 v -3"/></g><g id="g512" fill="none" stroke="#fff" stroke-width=".5" transform="matrix(1.99977,0,0,1.99977,2058.9316,2744.5046)"><path id="path510" fill="#fff" d="m 136.6872,79.84614 h 70 v -60 h -70 z"/></g><g id="g524" fill="none" stroke="#000" stroke-width=".5" transform="matrix(1.99977,0,0,1.99977,2058.9316,2744.5046)"><path id="path514" d="m 136.6872,79.84614 h 70 v -60 h -70 z"/><circle id="ellipse516" cx="154.187" cy="34.846" r="9"/><circle id="ellipse518" cx="189.187" cy="34.846" r="6"/><circle id="ellipse520" cx="154.187" cy="64.846" r="6"/><circle id="ellipse522" cx="189.187" cy="64.846" r="9"/></g><g id="g528" fill="none" stroke="#fff" stroke-width=".5" transform="matrix(1.99977,0,0,1.99977,2058.9316,2744.5046)"><path id="path526" fill="#fff" d="m -7.90841,75.01518 c 1.10457,0 2,-0.89543 2,-2 v -92.89886 c 0,-1.10457 -0.89543,-2 -2,-2 h -55.6321 c -1.10457,0 -2,0.89543 -2,2 v 92.89886 c 0,1.10457 0.89543,2 2,2 z"/></g><g id="g548" fill="none" stroke="#000" stroke-width=".5" transform="matrix(1.99977,0,0,1.99977,2058.9316,2744.5046)"><path id="path530" d="m -7.90841,75.01518 c 1.10457,0 2,-0.89543 2,-2 v -92.89886 c 0,-1.10457 -0.89543,-2 -2,-2 h -55.6321 c -1.10457,0 -2,0.89543 -2,2 v 92.89886 c 0,1.10457 0.89543,2 2,2 z"/><path id="path532" d="m -11.90841,71.01518 c 1.10457,0 2,-0.89543 2,-2 V 32.56575 c 0,-1.10457 -0.89543,-2 -2,-2 h -47.6321 c -1.10457,0 -2,0.89543 -2,2 v 36.44943 c 0,1.10457 0.89543,2 2,2 z"/><circle id="ellipse534" cx="-35.724" cy="35.566" r="3"/><line id="line536" x1="-57.022" x2="-57.022" y1="26.566" y2="-17.884"/><line id="line538" x1="-48.503" x2="-48.503" y1="26.566" y2="-17.884"/><line id="line540" x1="-39.984" x2="-39.984" y1="26.566" y2="-17.884"/><line id="line542" x1="-31.465" x2="-31.465" y1="26.566" y2="-17.884"/><line id="line544" x1="-22.946" x2="-22.946" y1="26.566" y2="-17.884"/><line id="line546" x1="-14.427" x2="-14.427" y1="26.566" y2="-17.884"/></g><g id="g666" fill="none" stroke="#fff" stroke-width=".5" transform="matrix(1.99977,0,0,1.99977,2058.9316,2744.5046)"><path id="path664" fill="#fff" d="m 138.46023,133.55242 c -1.10457,0 -2,0.89543 -2,2 v 66 c 0,1.10457 0.89543,2 2,2 h 68 v -70 z"/></g><g id="g674" fill="none" stroke="#000" stroke-width=".5" transform="matrix(1.99977,0,0,1.99977,2058.9316,2744.5046)"><path id="path668" d="m 138.46023,133.55242 c -1.10457,0 -2,0.89543 -2,2 v 66 c 0,1.10457 0.89543,2 2,2 h 68 v -70 z"/><path id="path670" d="m 136.46023,199.55242 h -4 v -4"/><line id="line672" x1="142.46" x2="142.46" y1="133.552" y2="203.552"/></g></g></g><g id="g156" fill="none" stroke="#111" stroke-width="1.5" transform="matrix(1.99977,0,0,1.99977,2058.9316,2744.5046)"><path id="path154" stroke-dasharray="none" stroke-miterlimit="4" stroke-width="3" d="M 1151.1914,2.5 V 3.859375 H 350.76367 V 194.49219 h 31.9961 V 35.855469 h 800.42183 v 41.777343 h 0.01 V 34.498047 h 250.2129 V 2.5 Z m 506.1914,0 v 31.998047 h 213.1836 V 410.87109 h -545.582 V 249.79102 h -141.7969 v -12.17774 h -0.01 v 12.48828 h 141.6778 v 298.70899 l -118.295,3.05859 0.6211,23.99024 117.6739,-3.04493 v 87.57813 h 2.457 v -87.32422 h 0.078 v -0.31445 h -0.1621 V 434.86914 h 543.334 v 138.19922 h 299.2441 v -0.31445 H 1870.832 V 34.498047 h 40.92 V 2.5 Z m 501.3555,0 v 31.998047 h 201.332 V 572.75391 h -30.2793 v 0.31445 h 52.793 v -0.31445 h -22.0606 V 34.498047 h 199.1289 V 2.5 Z m 405.4394,0 v 31.998047 h 79.9785 V 2.5 Z m 383.3828,0 v 31.998047 h 213.4747 V 669.09766 h -5.25 v 0.10156 h -0.1211 v 23.99609 h 0.1211 V 830.9668 H 2842.2285 V 669.1543 h -289.459 v -96.40039 h -10.205 v 0.31445 h 10.0761 v 233.86133 h 0.666 V 669.49414 h 288.42 v 162.23047 h 318.3457 v 488.66209 h 31.9961 v -7.4453 h -30.543 v -32.0352 h -0.3496 V 2.6015625 h -31.9961 V 2.5 Z M 350.76367,644.64648 v 235.4375 H 923.5918 V 848.08789 H 382.75977 V 717.71094 693.63281 644.64648 Z m 326.37305,73.02344 -0.36328,130.125 h 24.35937 v -130.125 z M 1324.8594,820.375 v 27.71289 h -241.2871 v 31.99609 h 29.039 v 82.22852 h 31.9961 V 848.21094 h 1000.3985 v 114.15429 h 23.9961 V 848.21094 h 191.5195 v -0.12305 H 1327.3145 V 820.375 Z m 1227.7812,10.63281 v 515.54879 h 0.1289 v -65.6504 h 0.5371 V 831.00781 Z m -308.2988,173.69529 v 23.9981 h 115.7285 v -23.9981 z m 25.9512,35.3946 v 23.998 h 89.7793 v -23.998 z M 1112.6133,1413.168 v 143.0566 h 84.4629 v -31.9961 h -52.4668 V 1413.168 Z m 2047.4609,87.1992 v 23.6211 h -43.1094 v 31.9961 h 75.1055 v -55.6172 z m -607.4316,6.1699 v 17.6914 h -0.084 v 0.2715 h 319.7148 v 196.4961 h 31.9961 v -165.0117 h 32.7168 v -31.9961 h -384.2148 v -17.4512 z m -1028.2598,17.6934 v 31.9961 h 24.3984 v 107.58 h 31.9961 v -139.5761 z m 1347.8906,376.7441 v 50.8496 h -83.8964 v 31.9961 h 115.8925 v -82.8457 z m -319.7148,50.8496 v 244.7149 h 31.9961 v -212.7188 h 43.8398 v -31.9961 z m -1003.7774,419.584 v 167.4648 h 91.0293 v -31.996 h -59.0332 v -135.4688 z m 1003.7774,125.0957 v 10.3731 h -39.0762 v 31.996 h 71.0723 v -42.3691 z m -732.7676,10.3731 v 31.996 h 513.7129 v -31.996 z" transform="matrix(0.50005751,0,0,0.50005751,-973.71091,-558.6576)"/></g><g id="g336" fill="none" stroke="#fff" stroke-width=".5" transform="matrix(1.99977,0,0,1.99977,2058.9316,2744.5046)"><path id="path334" fill="#fff" d="m -311.20585,-284.22161 h 73 v -70 h -73 z"/></g><g id="g342" fill="none" stroke="#000" stroke-width=".5" transform="matrix(1.99977,0,0,1.99977,2058.9316,2746.5046)"><path id="path338" d="m -311.20585,-284.22161 h 73 v -70 h -73 z"/><circle id="ellipse340" cx="-274.706" cy="-319.222" r="0"/></g><g id="g382" fill="none" stroke="#fff" stroke-width=".5" transform="matrix(1.99977,0,0,1.99977,2058.9316,2744.5046)"><path id="path380" fill="#fff" d="m -238.55775,-283.19888 h 200 v -70 h -200 z"/></g><g id="g386" fill="none" stroke="#000" stroke-width=".5" transform="matrix(1.99977,0,0,1.99977,2058.9316,2744.5046)"><path id="path384" d="m -238.55775,-283.19888 h 200 v -70 h -200 z"/></g><g id="layer1"><g id="g1038" fill="#000" fill-opacity="1" stroke="#000" stroke-width=".5" font-family="sans-serif" font-weight="bold" opacity="1" transform="matrix(3.599586,0,0,3.599586,853.10975,2047.025)"><text id="text1036" y="-5" fill="#000" fill-opacity="1" stroke="#000" stroke-width=".25" font-size="25" text-anchor="middle">Master</text></g><g id="g1034" fill="#000" fill-opacity="1" stroke="#000" stroke-width=".5" font-family="sans-serif" font-weight="bold" opacity="1" transform="matrix(3.599586,0,0,3.599586,2123.7536,3120.5501)"><text id="text1032" y="-5" fill="#000" fill-opacity="1" stroke="#000" stroke-width=".25" font-size="25" text-anchor="middle">Kitchen</text></g></g><g id="script.vacuum_projector_room"><path id="path36" fill="#ffeab9" fill-opacity=".923" stroke="none" stroke-width="2" d="m 3272.7691,1661.8139 v 634.6004 h -5.2494 v 161.8699 h -313.5564 v -161.814 h -289.4591 v -96.3996 h -192.2457 v -538.2567 z"/><path id="path100" fill="#fff" stroke="#000" stroke-dasharray="none" stroke-miterlimit="4" stroke-opacity="1" stroke-width="2" d="m 2755.8894,1629.7788 h 303.4051 v 32.0763 h -303.4051 z"/><g id="g240" fill="none" stroke="#fff" stroke-width=".5" transform="matrix(1.99977,0,0,1.99977,2058.9316,2744.5046)"><path id="path234" fill="#fff" d="m 328.15291,-351.40763 c 2.20914,0 4,-1.79086 4,-4 v -12 c 0,-2.20914 -1.79086,-4 -4,-4 h -67 c -2.20914,0 -4,1.79086 -4,4 v 12 c 0,2.20914 1.79086,4 4,4 z"/><path id="path236" fill="#fff" d="m 328.15291,-521.40763 c 2.20914,0 4,-1.79086 4,-4 v -12 c 0,-2.20914 -1.79086,-4 -4,-4 h -67 c -2.20914,0 -4,1.79086 -4,4 v 12 c 0,2.20914 1.79086,4 4,4 z"/><path id="path238" fill="#fff" d="m 335.15291,-371.40763 c 3.86599,0 7,-3.13401 7,-7 v -136 c 0,-3.86599 -3.13401,-7 -7,-7 h -83 v 150 z"/></g><g id="g252" fill="none" stroke="#000" stroke-width=".5" transform="matrix(1.99977,0,0,1.99977,2058.9316,2744.5046)"><path id="path242" d="m 328.15291,-351.40763 c 2.20914,0 4,-1.79086 4,-4 v -12 c 0,-2.20914 -1.79086,-4 -4,-4 h -67 c -2.20914,0 -4,1.79086 -4,4 v 12 c 0,2.20914 1.79086,4 4,4 z"/><path id="path244" d="m 328.15291,-521.40763 c 2.20914,0 4,-1.79086 4,-4 v -12 c 0,-2.20914 -1.79086,-4 -4,-4 h -67 c -2.20914,0 -4,1.79086 -4,4 v 12 c 0,2.20914 1.79086,4 4,4 z"/><path id="path246" d="m 335.15291,-371.40763 c 3.86599,0 7,-3.13401 7,-7 v -136 c 0,-3.86599 -3.13401,-7 -7,-7 h -83 v 150 z"/><line id="line248" x1="277.153" x2="277.153" y1="-371.408" y2="-521.408"/><line id="line250" x1="277.153" x2="342.153" y1="-446.408" y2="-446.408"/></g><g id="g318" fill="none" stroke="#fff" stroke-width=".5" transform="matrix(1.99977,0,0,1.99977,2058.9316,2744.5046)"><circle id="ellipse316" cx="601.66" cy="-538.908" r="2.5" fill="#fff"/></g><g id="g324" fill="none" stroke="#000" stroke-width=".5" transform="matrix(1.99977,0,0,1.99977,2058.9316,2744.5046)"><circle id="ellipse320" cx="601.66" cy="-538.908" r="2.5"/><circle id="ellipse322" cx="601.66" cy="-538.908" r="1"/></g><g id="g328" fill="none" stroke="#fff" stroke-width=".5" transform="matrix(1.99977,0,0,1.99977,2058.9316,2744.5046)"><path id="path326" fill="#fff" d="m 598.65988,-536.40763 c -1.10457,0 -2,0.89543 -2,2 v 201 c 0,1.10457 0.89543,2 2,2 h 6 c 1.10457,0 2,-0.89543 2,-2 v -201 c 0,-1.10457 -0.89543,-2 -2,-2 z"/></g><g id="g332" fill="none" stroke="#000" stroke-width=".5" transform="matrix(1.99977,0,0,1.99977,2058.9316,2744.5046)"><path id="path330" d="m 598.65988,-536.40763 c -1.10457,0 -2,0.89543 -2,2 v 201 c 0,1.10457 0.89543,2 2,2 h 6 c 1.10457,0 2,-0.89543 2,-2 v -201 c 0,-1.10457 -0.89543,-2 -2,-2 z"/></g><g id="g358" fill="none" stroke="#fff" stroke-width=".5" transform="matrix(1.99977,0,0,1.99977,2058.9316,2744.5046)"><path id="path356" fill="#fff" d="m 587.68713,-387.24286 v -112.60008 h -50 v 112.60008 z"/></g><g id="g362" fill="none" stroke="#000" stroke-width=".5" transform="matrix(1.99977,0,0,1.99977,2058.9316,2744.5046)"><path id="path360" d="m 587.68713,-387.24286 v -112.60008 h -50 v 112.60008 z"/></g></g><g id="script.vacuum_ensuite_bathroom"><path id="path54" fill="#ceddea" fill-opacity="1" stroke="none" stroke-width="2" d="M 1982.299,2038.1881 H 1436.7167 V 1877.1077 H 1294.9212 V 1661.8139 H 1982.299 Z"/><path id="path92" fill="#d9d4ad" stroke="#d9d4ad" stroke-width="2" d="m 1294.9615,1704.9502 v 159.9816 h -0.086 v -159.9816 z"/><g id="g172" fill="none" stroke="#fff" stroke-width=".5" transform="matrix(1.99977,0,0,1.99977,2058.9316,2744.5046)"><path id="path170" fill="#fff" d="m -220.52257,-353.19888 c 5.52285,0 10,-4.47715 10,-10 v -60 c 0,-5.52285 -4.47715,-10 -10,-10 h -80.62064 c -5.52285,0 -10,4.47715 -10,10 v 60 c 0,5.52285 4.47715,10 10,10 z"/></g><g id="g180" fill="none" stroke="#000" stroke-width=".5" transform="matrix(1.99977,0,0,1.99977,2058.9316,2744.5046)"><path id="path174" d="m -220.52257,-353.19888 c 5.52285,0 10,-4.47715 10,-10 v -60 c 0,-5.52285 -4.47715,-10 -10,-10 h -80.62064 c -5.52285,0 -10,4.47715 -10,10 v 60 c 0,5.52285 4.47715,10 10,10 z"/><path id="path176" d="m -220.52257,-357.19888 c 3.31371,0 6,-2.68629 6,-6 v -60 c 0,-3.31371 -2.68629,-6 -6,-6 h -80.62064 c -3.31371,0 -6,2.68629 -6,6 v 60 c 0,3.31371 2.68629,6 6,6 z"/><circle id="ellipse178" cx="-296.143" cy="-368.199" r="3"/></g><g id="g224" fill="none" stroke="#fff" stroke-width=".5" transform="matrix(1.99977,0,0,1.99977,2058.9316,2744.5046)"><path id="path220" fill="#fff" d="m -41.18736,-372.11244 c 1.65685,0 3,-1.34315 3,-3 v -30 c 0,-1.65685 -1.34315,-3 -3,-3 h -9 c -1.65685,0 -3,1.34315 -3,3 v 30 c 0,1.65685 1.34315,3 3,3 z"/><path id="path222" fill="#fff" d="m -53.18736,-377.11244 c -20.75,10 -40,0 -40,-13 0,-13 19.25,-23 40,-13 z"/></g><g id="g232" fill="none" stroke="#000" stroke-width=".5" transform="matrix(1.99977,0,0,1.99977,2058.9316,2744.5046)"><path id="path226" d="m -41.18736,-372.11244 c 1.65685,0 3,-1.34315 3,-3 v -30 c 0,-1.65685 -1.34315,-3 -3,-3 h -9 c -1.65685,0 -3,1.34315 -3,3 v 30 c 0,1.65685 1.34315,3 3,3 z"/><circle id="ellipse228" cx="-45.687" cy="-390.112" r="2"/><path id="path230" d="m -53.18736,-377.11244 c -20.75,10 -40,0 -40,-13 0,-13 19.25,-23 40,-13"/></g><g id="g478" fill="none" stroke="#fff" stroke-width=".5" transform="matrix(1.99977,0,0,1.99977,2058.9316,2744.5046)"><path id="path476" fill="#fff" d="m -88.55775,-435.90051 h 50 v -105.50712 h -50 z"/></g><g id="g482" fill="none" stroke="#000" stroke-width=".5" transform="matrix(1.99977,0,0,1.99977,2058.9316,2744.5046)"><path id="path480" d="m -88.55775,-435.90051 h 50 v -105.50712 h -50 z"/></g><g id="g552" fill="none" stroke="#fff" stroke-width=".5" transform="matrix(1.99977,0,0,1.99977,2058.9316,2744.5046)"><path id="path550" fill="#fff" d="m -78.18736,-487.74141 c 0,15 8,30 20,30 h 20 v -60 h -20 c -12,0 -20,15 -20,30 z"/></g><g id="g566" fill="none" stroke="#000" stroke-width=".5" transform="matrix(1.99977,0,0,1.99977,2058.9316,2744.5046)"><path id="path554" d="m -78.18736,-487.74141 c 0,15 8,30 20,30 h 20 v -60 h -20 c -12,0 -20,15 -20,30 z"/><path id="path556" d="m -59.18736,-489.24141 v 3 h 15 v -3 z"/><circle id="ellipse558" cx="-47.187" cy="-497.741" r="2.5"/><circle id="ellipse560" cx="-47.187" cy="-477.741" r="2.5"/><path id="path562" d="m -74.68736,-487.74141 c 0,12 6.5,25 12.5,25 8,0 10,-13 10,-23.5"/><path id="path564" d="m -74.68736,-487.74141 c 0,-12 6.5,-25 12.5,-25 8,0 10,13 10,23.5"/></g></g><g id="script.vacuum_study"><path id="path102" fill="#fff" stroke="#000" stroke-dasharray="none" stroke-miterlimit="4" stroke-opacity="1" stroke-width="2" d="m 3228.6971,3183.3421 h -179.9793 v -32.0763 h 179.9793 z"/><path id="path38" fill="#f1c8c7" fill-opacity=".827" stroke="none" stroke-width="2" d="m 2664.5042,3151.3061 v -243.0814 h 0.5371 v -611.4138 h 288.4201 v 162.2323 h 318.3464 v 692.2629 z"/><path id="path62" fill="#f5e1b3" fill-opacity="1" stroke="#000" stroke-dasharray="none" stroke-miterlimit="4" stroke-opacity="1" stroke-width=".99" d="m 2953.9627,2296.4761 h 313.4359 v 24.0773 h -313.4359 z"/><path id="path66" fill="#ddbab7" fill-opacity="1" stroke="#000" stroke-dasharray="none" stroke-miterlimit="4" stroke-opacity="1" stroke-width=".99" d="m 2664.29,2434.2483 h 289.1707 v 24.0772 H 2664.29 Z"/><path id="path68" fill="#d9d4ad" stroke="#d9d4ad" stroke-width="2" d="m 2664.334,3133.8558 v -159.9816 h 0.2099 v 159.9816 z"/><path id="path104" fill="#fff" stroke="#000" stroke-dasharray="none" stroke-miterlimit="4" stroke-opacity="1" stroke-width="2" d="m 3303.8424,2947.7052 v 179.9793 h -32.0763 v -179.9793 z"/><g id="g256" fill="none" stroke="#fff" stroke-width=".5" transform="matrix(1.99977,0,0,1.99977,2058.9316,2744.5046)"><path id="path254" fill="#fff" d="m 467.91585,-33.1508 c -2.76142,0 -5,2.23857 -5,5 v 46.58031 c 0,2.76142 2.23858,5 5,5 h 48.51912 V -33.1508 Z"/></g><g id="g260" fill="none" stroke="#000" stroke-width=".5" transform="matrix(1.99977,0,0,1.99977,2058.9316,2744.5046)"><path id="path258" d="m 467.91585,-33.1508 c -2.76142,0 -5,2.23857 -5,5 v 46.58031 c 0,2.76142 2.23858,5 5,5 h 48.51912 V -33.1508 Z"/></g><g id="g264" fill="none" stroke="#fff" stroke-width=".5" transform="matrix(1.99977,0,0,1.99977,2058.9316,2744.5046)"><path id="path262" fill="#fff" d="m 460.91585,-38.1508 c -2.76142,0 -5,2.23857 -5,5 v 56.58031 c 0,2.76142 2.23858,5 5,5 v 0 c 0.55228,0 1,-0.44772 1,-1 V -37.1508 c 0,-0.55229 -0.44772,-1 -1,-1 z"/></g><g id="g268" fill="none" stroke="#000" stroke-width=".5" transform="matrix(1.99977,0,0,1.99977,2058.9316,2744.5046)"><path id="path266" d="m 460.91585,-38.1508 c -2.76142,0 -5,2.23857 -5,5 v 56.58031 c 0,2.76142 2.23858,5 5,5 v 0 c 0.55228,0 1,-0.44772 1,-1 V -37.1508 c 0,-0.55229 -0.44772,-1 -1,-1 z"/></g><g id="g366" fill="none" stroke="#fff" stroke-width=".5" transform="matrix(1.99977,0,0,1.99977,2058.9316,2744.5046)"><path id="path364" fill="#fff" d="M 519.74052,-93.4935 V 81.86945 h 86.91936 V -93.4935 Z"/></g><g id="g370" fill="none" stroke="#000" stroke-width=".5" transform="matrix(1.99977,0,0,1.99977,2058.9316,2744.5046)"><path id="path368" d="M 519.74052,-93.4935 V 81.86945 h 86.91936 V -93.4935 Z"/></g><g id="g574" fill="none" stroke="#fff" stroke-width=".5" transform="matrix(1.99977,0,0,1.99977,2058.9316,2744.5046)"><path id="path568" fill="#fff" d="m 569.37479,-19.20264 v 31.6048 h -25 v -31.6048 z"/><path id="path570" fill="#fff" d="m 559.87479,-42.90623 v 79.01198 h -6 v -79.01198 z"/><path id="path572" fill="#fff" d="m 559.87479,-32.90623 3,3 v 53.01198 l -3,3"/></g><g id="g584" fill="#646464" fill-opacity="1" stroke="#000" stroke-width=".5" transform="matrix(1.99977,0,0,1.99977,2058.9316,2744.5046)"><path id="path576" fill="#646464" fill-opacity="1" d="m 559.87479,-42.90623 v 79.01198 h -6 v -79.01198 z"/><path id="path578" fill="#646464" fill-opacity="1" d="m 559.87479,-32.90623 3,3 v 53.01198 l -3,3"/><path id="path580" fill="#646464" fill-opacity="1" d="m 562.87479,-19.20264 h 6.5 v 31.6048 h -6.5"/><path id="path582" fill="#646464" fill-opacity="1" d="m 553.87479,-19.20264 h -9.5 v 31.6048 h 9.5"/></g></g><g id="g978" fill="none" stroke="#000" stroke-width=".5" transform="matrix(1.99977,0,0,1.99977,2058.9316,2744.5046)"><path id="path706" d="m 447.5673,-213.02042 h 5 v -78.36794 c 40.51999,0 73.36794,30.60937 73.36794,68.36794 0,-37.75857 32.84795,-68.36794 73.36794,-68.36794 v 78.36794 h 5"/><line id="line708" x1="447.567" x2="604.303" y1="-223.02" y2="-223.02"/><line id="line710" x1="457.567" x2="457.567" y1="-223.02" y2="-291.22"/><line id="line712" x1="594.303" x2="594.303" y1="-223.02" y2="-291.22"/><line id="line714" x1="308.525" x2="306.262" y1="-541.408" y2="-541.408"/><line id="line716" x1="308.525" x2="306.262" y1="-557.408" y2="-557.408"/><line id="line718" x1="500.24" x2="348.519" y1="-541.408" y2="-541.408"/><line id="line720" x1="500.24" x2="348.519" y1="-557.408" y2="-557.408"/><path id="path732" d="m 217.71807,-272.09061 h 5 v -70.15771 c 38.65993,0 70,31.34007 70,70 v 0.15771 h 5"/><line id="line734" x1="217.718" x2="297.718" y1="-272.248" y2="-272.248"/><line id="line736" x1="227.718" x2="227.718" y1="-272.248" y2="-342.087"/><path id="path738" d="m 302.71489,-154.12664 h 5 v 72.30067 c 37.16913,0 67.30067,-27.89296 67.30067,-62.30067 0,34.40771 30.13154,62.30067 67.30067,62.30067 v -72.30067 h 5"/><line id="line740" x1="302.715" x2="447.316" y1="-144.127" y2="-144.127"/><line id="line742" x1="312.715" x2="312.715" y1="-144.127" y2="-81.981"/><line id="line744" x1="437.316" x2="437.316" y1="-144.127" y2="-81.981"/><line id="line746" x1="494.95" x2="584.951" y1="203.424" y2="203.424"/><line id="line748" x1="494.95" x2="584.951" y1="219.424" y2="219.424"/><path id="path760" d="m 302.75674,194.69843 v -5 h 70.06438 c 0,-38.65993 -31.34007,-70 -70,-70 h -0.0644 v -5"/><line id="line762" x1="302.821" x2="302.821" y1="194.698" y2="114.698"/><line id="line764" x1="302.821" x2="372.66" y1="184.698" y2="184.698"/><line id="line766" x1="606.508" x2="606.508" y1="191.613" y2="101.613"/><line id="line768" x1="622.508" x2="622.508" y1="191.613" y2="101.613"/><line id="line794" x1="-309.938" x2="-38.321" y1="-272.169" y2="-272.169"/><line id="line796" x1="-309.938" x2="-160.548" y1="-272.248" y2="-272.248"/><line id="line798" x1="-160.548" x2="-160.548" y1="-272.248" y2="-272.169"/><line id="line800" x1="-187.71" x2="-38.321" y1="-272.091" y2="-272.091"/><line id="line802" x1="-187.71" x2="-187.71" y1="-272.091" y2="-272.169"/><path id="path804" d="m -309.97636,-148.42343 v -5 h -71.22949 c 0,-38.65993 31.34007,-70 70,-70 h 1.22949 v -5"/><line id="line806" x1="-311.206" x2="-311.206" y1="-148.423" y2="-228.423"/><line id="line808" x1="-311.206" x2="-381.043" y1="-158.423" y2="-158.423"/><path id="path810" d="m 191.31957,-272.09061 h -5 v -70.15771 c -38.65993,0 -70,31.34007 -70,70 v 0.15771 h -5"/><line id="line812" x1="191.32" x2="111.32" y1="-272.248" y2="-272.248"/><line id="line814" x1="181.32" x2="181.32" y1="-272.248" y2="-342.087"/><line id="line816" x1="462.59" x2="462.59" y1="391.939" y2="301.939"/><line id="line818" x1="478.59" x2="478.59" y1="391.939" y2="301.939"/><g id="binary_sensor.door_window_sensor_158d000186f0ec" fill="#fff" fill-opacity="1"><path id="path84" fill="#fff" fill-opacity="1" stroke="#000" stroke-opacity="1" stroke-width="2" d="m 1660.4734,3998.7263 v -707.6026 h 32.0763 v 707.6026 z" font-family="sans-serif" font-weight="bold" transform="matrix(0.50005751,0,0,0.50005751,-1029.5842,-1372.4101)"/></g><path id="path888" d="m 105.02428,-86.56788 4.15809,2.77674 -33.17191,49.67413 c 22.84136,15.25324 53.72314,9.10186 68.97638,-13.7395 l 5.55347,-8.31619 4.1581,2.77674"/><line id="line890" x1="99.471" x2="149.145" y1="-78.252" y2="-45.08" stroke-dasharray="none" stroke-miterlimit="4" stroke-width=".495"/><line id="line892" x1="107.787" x2="80.238" y1="-72.698" y2="-31.445"/><path id="path922" d="m -371.04912,-433.59258 v 5 h -81.44834 c 0,42.22125 31.98851,76.44834 71.44834,76.44834 -39.45983,0 -71.44834,34.22709 -71.44834,76.44834 h 81.44834 v 5"/><line id="line924" x1="-381.049" x2="-381.049" y1="-433.593" y2="-270.696"/><line id="line926" x1="-381.049" x2="-452.322" y1="-423.593" y2="-423.593"/><line id="line928" x1="-381.049" x2="-452.322" y1="-280.696" y2="-280.696"/><path id="path930" stroke-dasharray="none" stroke-miterlimit="4" stroke-width=".495" d="m -782.62452,-200.5583 h 4.89327 v -81.72276 c 41.34788,0 74.86697,32.09914 74.86697,71.69542 0,-39.59628 33.51909,-71.69542 74.86697,-71.69542 v 81.72276 h 4.89327"/><line id="line932" x1="-782.843" x2="-623.104" y1="-210.781" y2="-210.781" stroke-dasharray="none" stroke-miterlimit="4" stroke-width=".495"/><line id="line934" x1="-776.104" x2="-776.104" y1="-210.781" y2="-282.105"/><line id="line936" x1="-630.104" x2="-630.104" y1="-210.781" y2="-282.105"/><path id="path952" d="m -382.0527,-519.83744 v 5 h 70.00358 c 0,38.65993 -31.34007,70 -70,70 h -0.004 v 5"/><line id="line954" x1="-382.049" x2="-382.049" y1="-519.837" y2="-439.837"/><line id="line956" x1="-382.049" x2="-312.21" y1="-509.837" y2="-509.837"/></g><g id="script.vacuum_main_bathroom"><path id="path40" fill="#ceddea" fill-opacity="1" stroke="none" stroke-width="2" d="m 2471.8048,1661.8139 v 538.2567 h -489.2391 v -538.2567 z"/><g id="g160" fill="none" stroke="#fff" stroke-width=".5" transform="matrix(1.99977,0,0,1.99977,2058.9316,2744.5046)"><path id="path158" fill="#fff" d="m 126.89359,-541.40763 c -5.52285,0 -10,4.47715 -10,10 v 60 c 0,5.52285 4.47715,10 10,10 h 69.56673 c 5.52284,0 10,-4.47715 10,-10 v -60 c 0,-5.52285 -4.47716,-10 -10,-10 z"/></g><g id="g168" fill="none" stroke="#000" stroke-width=".5" transform="matrix(1.99977,0,0,1.99977,2058.9316,2744.5046)"><path id="path162" d="m 126.89359,-541.40763 c -5.52285,0 -10,4.47715 -10,10 v 60 c 0,5.52285 4.47715,10 10,10 h 69.56673 c 5.52284,0 10,-4.47715 10,-10 v -60 c 0,-5.52285 -4.47716,-10 -10,-10 z"/><path id="path164" d="m 126.89359,-537.40763 c -3.31371,0 -6,2.68629 -6,6 v 60 c 0,3.31371 2.68629,6 6,6 h 69.56673 c 3.3137,0 6,-2.68629 6,-6 v -60 c 0,-3.31371 -2.6863,-6 -6,-6 z"/><circle id="ellipse166" cx="191.46" cy="-526.408" r="3"/></g><g id="g210" fill="none" stroke="#fff" stroke-width=".5" transform="matrix(1.99977,0,0,1.99977,2058.9316,2744.5046)"><path id="path206" fill="#fff" d="m 29.95857,-275.09061 c 0,1.65685 1.34315,3 3,3 h 30 c 1.65685,0 3,-1.34315 3,-3 v -9 c 0,-1.65685 -1.34315,-3 -3,-3 h -30 c -1.65685,0 -3,1.34315 -3,3 z"/><path id="path208" fill="#fff" d="m 34.95857,-287.09061 c -10,-20.75 0,-40 13,-40 13,0 23,19.25 13,40 z"/></g><g id="g218" fill="none" stroke="#000" stroke-width=".5" transform="matrix(1.99977,0,0,1.99977,2058.9316,2744.5046)"><path id="path212" d="m 29.95857,-275.09061 c 0,1.65685 1.34315,3 3,3 h 30 c 1.65685,0 3,-1.34315 3,-3 v -9 c 0,-1.65685 -1.34315,-3 -3,-3 h -30 c -1.65685,0 -3,1.34315 -3,3 z"/><circle id="ellipse214" cx="47.959" cy="-279.591" r="2"/><path id="path216" d="m 34.95857,-287.09061 c -10,-20.75 0,-40 13,-40 13,0 23,19.25 13,40"/></g><g id="g296" fill="none" stroke="#fff" stroke-width=".5" transform="matrix(1.99977,0,0,1.99977,2058.9316,2744.5046)"><path id="path294" fill="#fff" d="m -38.18736,-472.10342 c 0,5.52285 4.47715,10 10,10 H 95.77146 c 11.04569,0 20,-8.95431 20,-20 v -40 c 0,-11.04569 -8.95431,-20 -20,-20 H -28.18736 c -5.52285,0 -10,4.47715 -10,10 z"/></g><g id="g314" fill="none" stroke="#000" stroke-width=".5" transform="matrix(1.99977,0,0,1.99977,2058.9316,2744.5046)"><path id="path298" d="m -38.18736,-472.10342 c 0,5.52285 4.47715,10 10,10 H 95.77146 c 11.04569,0 20,-8.95431 20,-20 v -40 c 0,-11.04569 -8.95431,-20 -20,-20 H -28.18736 c -5.52285,0 -10,4.47715 -10,10 z"/><path id="path300" d="m -23.18736,-472.10342 c 0,2.76142 2.23858,5 5,5 H 90.77146 c 8.28427,0 15,-6.71573 15,-15 v -40 c 0,-8.28427 -6.71573,-15 -15,-15 H -18.18736 c -2.76142,0 -5,2.23858 -5,5"/><path id="path302" d="m -32.18736,-500.60342 h 19 v -3 h -19 z"/><circle id="ellipse304" cx="-28.187" cy="-495.103" r="2.5"/><circle id="ellipse306" cx="-28.187" cy="-509.103" r="2.5"/><circle id="ellipse308" cx="-3.187" cy="-502.103" r="3"/><line id="line310" x1="-23.187" x2="-23.187" y1="-472.103" y2="-500.603"/><line id="line312" x1="-23.187" x2="-23.187" y1="-532.103" y2="-503.603"/></g><g id="g374" fill="none" stroke="#fff" stroke-width=".5" transform="matrix(1.99977,0,0,1.99977,2058.9316,2744.5046)"><path id="path372" fill="#fff" d="m -38.18736,-341.19888 h 50 V -446.706 h -50 z"/></g><g id="g378" fill="none" stroke="#000" stroke-width=".5" transform="matrix(1.99977,0,0,1.99977,2058.9316,2744.5046)"><path id="path376" d="m -38.18736,-341.19888 h 50 V -446.706 h -50 z"/></g><g id="g494" fill="none" stroke="#fff" stroke-width=".5" transform="matrix(1.99977,0,0,1.99977,2058.9316,2744.5046)"><path id="path492" fill="#fff" d="m 1.81264,-394.50503 c 0,-15 -8,-30 -20,-30 h -20 v 60 h 20 c 12,0 20,-15 20,-30 z"/></g><g id="g508" fill="none" stroke="#000" stroke-width=".5" transform="matrix(1.99977,0,0,1.99977,2058.9316,2744.5046)"><path id="path496" d="m 1.81264,-394.50503 c 0,-15 -8,-30 -20,-30 h -20 v 60 h 20 c 12,0 20,-15 20,-30 z"/><path id="path498" d="m -17.18736,-393.00503 v -3 h -15 v 3 z"/><circle id="ellipse500" cx="-29.187" cy="-384.505" r="2.5"/><circle id="ellipse502" cx="-29.187" cy="-404.505" r="2.5"/><path id="path504" d="m -1.68736,-394.50503 c 0,-12 -6.5,-25 -12.5,-25 -8,0 -10,13 -10,23.5"/><path id="path506" d="m -1.68736,-394.50503 c 0,12 -6.5,25 -12.5,25 -8,0 -10,-13 -10,-23.5"/></g></g><g id="script.vacuum_entryway"><path id="fhdyr" fill="#ceead0" fill-opacity="1" stroke="none" stroke-width="2" d="m 2984.0052,3151.8191 v 427.3253 h -295.7165 v -427.3253 z"/><path id="path78" fill="#cfe9d1" fill-opacity="1" stroke="none" stroke-opacity="1" stroke-width="2" d="m 2664.25,3579.1426 v -427.3248 h 32.0763 v 427.3248 z"/></g><g id="script.vacuum_dining_room"><path id="path50" fill="#dfd7e1" fill-opacity="1" stroke="none" stroke-width="1.467" d="m 1910.9901,2475.529 v 676.0263 l -654.6493,-0.01 v -676.0176 z"/><g id="g406" fill="none" stroke="#fff" stroke-width=".5" transform="matrix(1.99977,0,0,1.99977,2058.9316,2744.5046)"><path id="path404" fill="#fff" d="m -341.59565,80.62291 h 177.49278 V -23.65661 h -177.49278 z"/></g><g id="g410" fill="none" stroke="#000" stroke-width=".5" transform="matrix(1.99977,0,0,1.99977,2058.9316,2744.5046)"><path id="path408" d="m -341.59565,80.62291 h 177.49278 V -23.65661 h -177.49278 z"/></g></g><g id="script.vacuum_living_room"><path id="binary_sensor.motion" fill="#c3d3f5" fill-opacity="1" stroke="none" stroke-width="2" d="m 2664.2914,3151.5626 v 982.6331 h -971.782 v -982.6331 z"/><g id="g276" fill="none" stroke="#fff" stroke-width=".5" transform="matrix(1.99977,0,0,1.99977,2028.9316,2744.5046)"><path id="path270" fill="#fff" d="m -27.78204,496.22565 c 2.20913,0 4,-1.79086 4,-4 v -12 c 0,-2.20914 -1.79087,-4 -4,-4 h -67 c -2.20914,0 -4,1.79086 -4,4 v 12 c 0,2.20914 1.79086,4 4,4 z"/><path id="path272" fill="#fff" d="m 208.90585,425.55763 c 2.20913,0 4,-1.79086 4,-4 v -67 c 0,-2.20914 -1.79087,-4 -4,-4 h -12 c -2.20914,0 -4,1.79086 -4,4 v 67 c 0,2.20914 1.79086,4 4,4 z"/><path id="path274" fill="#fff" d="M -103.78204,476.22565 V 345.55763 h 296.68789 v 83 c 0,3.86599 -3.13401,7 -7,7 H -13.78204 v 33.66802 c 0,3.86599 -3.13401,7 -7,7 z"/></g><g id="g292" fill="none" stroke="#000" stroke-width=".5" transform="matrix(1.99977,0,0,1.99977,2030.9316,2744.5046)"><path id="path278" d="M -103.78204,476.22565 V 345.55763 h 296.68789 v 83 c 0,3.86599 -3.13401,7 -7,7 H -13.78204 v 33.66802 c 0,3.86599 -3.13401,7 -7,7 z"/><path id="path280" d="m -27.78204,496.22565 c 2.20913,0 4,-1.79086 4,-4 v -12 c 0,-2.20914 -1.79087,-4 -4,-4 h -67 c -2.20914,0 -4,1.79086 -4,4 v 12 c 0,2.20914 1.79086,4 4,4 z"/><path id="path282" d="m 208.90585,425.55763 c 2.20913,0 4,-1.79086 4,-4 v -67 c 0,-2.20914 -1.79087,-4 -4,-4 h -12 c -2.20914,0 -4,1.79086 -4,4 v 67 c 0,2.20914 1.79086,4 4,4 z"/><path id="path284" d="M -78.78204,476.22565 V 370.55763 h 271.68789"/><line id="line286" x1="-13.782" x2="-13.782" y1="435.558" y2="370.558"/><line id="line288" x1="54.425" x2="54.425" y1="435.558" y2="370.558"/><line id="line290" x1="124.699" x2="124.699" y1="435.558" y2="370.558"/></g><g id="g394" fill="#fff" fill-opacity="1" stroke="#000" stroke-width=".5" transform="matrix(2.3232429,0,0,1.99977,1994.4481,2742.5046)"><path id="path392" fill="#fff" fill-opacity="1" d="M 6.86378,584.1179 H 149.88429 V 507.38546 H 6.86378 Z"/></g><g id="g398" fill="none" stroke="#fff" stroke-width=".5" transform="matrix(1.99977,0,0,1.99977,2100.9316,2744.5046)"><path id="path396" fill="#fff" d="m -65.11572,694.92549 h 210 v -70 h -210 z"/></g><g id="g402" fill="none" stroke="#000" stroke-width=".5" transform="matrix(1.99977,0,0,1.99977,2100.9316,2744.5046)"><path id="path400" d="m -65.11572,694.92549 h 210 v -70 h -210 z"/></g><g id="g592" fill="none" stroke="#fff" stroke-width=".5" transform="matrix(1.99977,0,0,1.99977,2100.9316,2744.5046)"><path id="path586" fill="#fff" d="M 72.22753,665.19355 H 9.48339 v -25 h 62.74414 z"/><path id="path588" fill="#fff" d="M 119.28564,655.69355 H -37.57472 v -6 h 156.86036 z"/><path id="path590" fill="#fff" d="m 109.28564,655.69355 -3,3 H -24.57472 l -3,-3"/></g><g id="media_player.tv_ua55ju6400" fill="#646464" fill-opacity="1" stroke="#646464" stroke-opacity="1" stroke-width=".5" transform="matrix(1.99977,0,0,2.7023919,2100.9316,2294.6906)"><path id="path594" fill="#646464" fill-opacity="1" stroke="#646464" stroke-opacity="1" d="M 119.28564,655.69355 H -37.57472 v -6 h 156.86036 z"/><path id="path596" fill="#646464" fill-opacity="1" stroke="#646464" stroke-opacity="1" d="m 109.28564,655.69355 -3,3 H -24.57472 l -3,-3"/><path id="path598" fill="#646464" fill-opacity="1" stroke="#646464" stroke-opacity="1" d="m 72.22753,658.69355 v 6.5 H 9.48339 v -6.5"/><path id="path600" fill="#646464" fill-opacity="1" stroke="#646464" stroke-opacity="1" d="m 72.22753,649.69355 v -9.5 H 9.48339 v 9.5"/></g></g><path id="path6882" fill="#6e95b6" fill-opacity="1" stroke="#6e95b6" stroke-dasharray="none" stroke-miterlimit="4" stroke-opacity="1" stroke-width=".362" d="M 1657.6092,3280.2791 V 3186.686 H 1439.4666 1221.324 v -106.0843 -106.0843 h 0.9052 0.9051 v 105.1791 105.1792 h 218.1426 218.1426 v 94.4982 94.4983 h -0.9051 -0.9052 z" opacity="0"/><path id="path78-0" fill="#cfe9d1" fill-opacity="1" stroke="none" stroke-opacity="1" stroke-width="2" d="m 2473.7391,3151.6214 v -6.9013 h 189.0919 v 6.9013 z" font-family="sans-serif" font-weight="bold"/><g id="g1042" fill="#000" fill-opacity="1" stroke="#000" stroke-width=".5" font-family="sans-serif" font-weight="bold" opacity="1" transform="matrix(3.599586,0,0,3.599586,1659.8143,1846.1868)"><text id="text1040" y="-5" fill="#000" fill-opacity="1" stroke="#000" stroke-width=".25" font-size="25" text-anchor="middle">Ensuite</text></g><g id="g1022" fill="#000" fill-opacity="1" stroke="#000" stroke-width=".5" font-family="sans-serif" font-weight="bold" opacity="1" transform="matrix(3.4196067,0,0,3.4196067,2224.3948,2118.2481)"><text id="text1020" y="-5" fill="#000" fill-opacity="1" stroke="#000" stroke-width=".25" font-size="25" text-anchor="middle">Bathroom</text></g><g id="g1014" fill="#000" fill-opacity="1" stroke="#000" stroke-width=".5" font-family="sans-serif" font-weight="bold" opacity="1" transform="matrix(3.599586,0,0,3.599586,2873.7895,2158.0051)"><text id="text1012" y="-5" fill="#000" fill-opacity="1" stroke="#000" stroke-width=".25" font-size="25" text-anchor="middle">Projector Room</text></g><g id="g1018" fill="#000" fill-opacity="1" stroke="#000" stroke-width=".5" font-family="sans-serif" font-weight="bold" opacity="1" transform="matrix(3.599586,0,0,3.599586,2924.2993,2905.6248)"><text id="text1016" y="-5" fill="#000" fill-opacity="1" stroke="#000" stroke-width=".25" font-size="25" text-anchor="middle">Study</text></g><g id="g1026" fill="#000" fill-opacity="1" stroke="#000" stroke-width=".5" font-family="sans-serif" font-weight="bold" opacity="1" transform="matrix(3.599586,0,0,3.599586,2823.5715,3395.3427)"><text id="text1024" y="-5" fill="#000" fill-opacity="1" stroke="#000" stroke-width=".25" font-size="25" text-anchor="middle">Entry</text></g><g id="g1046" fill="#000" fill-opacity="1" stroke="#000" stroke-width=".5" font-family="sans-serif" font-weight="bold" opacity="1" transform="matrix(3.599586,0,0,3.599586,2177.635,3403.988)"><text id="text1044" y="-5" fill="#000" fill-opacity="1" stroke="#000" stroke-width=".25" font-size="25" text-anchor="middle">Living room</text></g><g id="g1030" fill="#000" fill-opacity="1" stroke="#000" stroke-width=".5" font-family="sans-serif" font-weight="bold" opacity="1" transform="matrix(3.599586,0,0,3.599586,1557.8119,2840.6351)"><text id="text1028" y="-5" fill="#000" fill-opacity="1" stroke="#000" stroke-width=".25" font-size="25" text-anchor="middle">Meals</text></g><g id="sensor.xiaomi_vacuum_cleaner_status" transform="translate(0,48)"><text id="text1028-4" x="20.086" y="-3.174" fill="#4d4d4d" fill-opacity="1" stroke="#000" stroke-dasharray="none" stroke-miterlimit="4" stroke-width=".5" font-family="sans-serif" font-size="25" font-weight="bold" opacity="1" text-anchor="middle" transform="matrix(7.6668654,0,0,7.6668654,880.13251,3458.0049)"><tspan id="tspan5262" font-size="17.391">----------</tspan></text><circle id="path4523" cx="1038.997" cy="3736.592" r="233.824" fill="#4d4d4d" fill-opacity="1" stroke="#000" stroke-dasharray="none" stroke-miterlimit="4" stroke-opacity="1" stroke-width="0" font-family="sans-serif" font-weight="bold"/></g><path id="path2" fill="#f9f8f8" fill-opacity="1" stroke-width="19.568" d="m 1038.9974,3588.9088 c 51.8559,0 101.5593,20.7424 138.3476,57.335 l -27.7869,27.787 c -29.3524,-29.3524 -69.076,-45.9855 -110.5607,-45.9855 -41.48468,0 -81.40393,16.4374 -110.56064,45.9855 l -27.78693,-27.787 c 36.78833,-36.5926 86.49171,-57.335 138.34757,-57.335 m -163.19926,88.0572 28.37398,28.1783 c -14.08915,24.0689 -21.72077,51.4645 -21.72077,79.4471 a 156.54608,156.54608 0 0 0 156.54605,156.5461 156.54608,156.54608 0 0 0 156.5461,-156.5461 c 0,-27.9826 -7.6316,-55.3782 -21.9164,-79.4471 l 28.5696,-28.1783 c 21.1337,31.7006 32.4833,69.2716 32.4833,107.6254 A 195.6826,195.6826 0 0 1 1038.9974,3980.274 195.6826,195.6826 0 0 1 843.31483,3784.5914 c 0,-38.3538 11.34959,-75.9248 32.48331,-107.6254 m 163.19926,-9.7841 a 117.40956,117.40956 0 0 1 117.4096,117.4095 c 0,31.1136 -12.328,61.053 -34.4401,82.9694 l -27.5913,-27.5912 c -14.6762,14.6762 -34.6358,22.8949 -55.3782,22.8949 -20.7423,0 -40.70195,-8.2187 -55.37815,-22.8949 l -27.59124,27.5912 c -22.11214,-21.9164 -34.44014,-51.8558 -34.44014,-82.9694 a 117.40956,117.40956 0 0 1 117.40953,-117.4095 m 0,39.1365 a 19.56826,19.56826 0 0 0 -19.5682,19.5682 19.56826,19.56826 0 0 0 19.5682,19.5683 19.56826,19.56826 0 0 0 19.5683,-19.5683 19.56826,19.56826 0 0 0 -19.5683,-19.5682 z" font-family="sans-serif" font-weight="bold"/></g></svg>